<svg xmlns="http://www.w3.org/2000/svg" width="3840" height="2160" viewBox="0 0 3840 2160">
  <rect width="100%" height="100%" fill="#F8F7F5"/>
  <g stroke="#111" stroke-width="4" fill="none">
    <path d="M120 120 h3600" stroke-opacity="0.9"/>
  </g>

  <g transform="translate(160,220)">
    <text x="40" y="40" font-family="serif" font-size="40" fill="#111">Contact</text>

    <!-- two-column layout: left info panel, right form panel -->
    <g transform="translate(40,120)">
      <rect x="0" y="0" width="1400" height="1120" rx="18" fill="#fff" stroke="#111" stroke-width="3"/>
      <g transform="translate(40,40)">
        <text x="20" y="52" font-family="serif" font-size="28" fill="#111">Get in touch</text>
        <text x="20" y="92" font-family="serif" font-size="18" fill="#444">I’m open to freelance work and collaborations. Share a few details and I’ll get back soon.</text>

        <g transform="translate(20,160)">
          <rect x="0" y="0" width="560" height="660" rx="12" fill="#fff" stroke="#111" stroke-width="2"/>
          <text x="24" y="44" font-family="serif" font-size="18" fill="#111">Email: hello@savio.dev</text>
          <text x="24" y="80" font-family="serif" font-size="18" fill="#111">Phone: +1 (555) 123-4567</text>
          <text x="24" y="120" font-family="serif" font-size="16" fill="#444">Timezone: UTC+5:30</text>

          <rect x="20" y="540" width="220" height="52" rx="10" fill="#fff" stroke="#111"/>
          <text x="48" y="576" font-family="serif" font-size="18" fill="#111">Email Me</text>
        </g>

        <g transform="translate(640,160)">
          <rect x="0" y="0" width="720" height="660" rx="12" fill="#fff" stroke="#111" stroke-width="2"/>
          <text x="28" y="44" font-family="serif" font-size="18" fill="#111">Message form</text>

          <rect x="24" y="84" width="660" height="56" rx="10" fill="#fff" stroke="#111"/>
          <rect x="24" y="156" width="320" height="56" rx="10" fill="#fff" stroke="#111"/>
          <rect x="364" y="156" width="320" height="56" rx="10" fill="#fff" stroke="#111"/>
          <rect x="24" y="236" width="660" height="280" rx="10" fill="#fff" stroke="#111"/>

          <rect x="480" y="532" width="200" height="56" rx="12" fill="#fff" stroke="#111"/>
          <text x="520" y="568" font-family="serif" font-size="18" fill="#111">Send Message</text>
        </g>
      </g>
    </g>
  </g>
</svg>