<svg xmlns="http://www.w3.org/2000/svg" width="3840" height="2160" viewBox="0 0 3840 2160">
  <rect width="100%" height="100%" fill="#F7F6F4"/>
  <!-- hand-drawn header strip -->
  <g stroke="#111" stroke-width="4" fill="none" stroke-linecap="round" stroke-linejoin="round">
    <path d="M120 120 h3600" stroke-opacity="0.9"/>
    <path d="M120 160 h3600" stroke-opacity="0.06"/>
  </g>

  <!-- logo: small sketched badge -->
  <g transform="translate(200,95) scale(1.0)">
    <rect x="0" y="0" width="220" height="60" rx="12" fill="#fff" stroke="#111" stroke-width="3"/>
    <text x="18" y="40" font-family="serif" font-size="28" fill="#111">Savio</text>
  </g>

  <!-- main hero frame: hand-drawn arch -->
  <g transform="translate(140,260)">
    <path d="M0 120 q200 -200 600 -200 h1800 q400 0 600 200 v820 q-200 200 -600 200 h-1800 q-400 0 -600 -200 z" fill="#fff" stroke="#111" stroke-width="5"/>
    <rect x="60" y="80" width="3300" height="860" fill="none" stroke="#111" stroke-width="3"/>

    <!-- left column: sketched profile card -->
    <g transform="translate(120,140)">
      <rect x="0" y="0" width="780" height="720" rx="18" fill="#fff" stroke="#111" stroke-width="3"/>
      <circle cx="140" cy="160" r="110" fill="#fff" stroke="#111" stroke-width="3"/>
      <text x="300" y="140" font-family="serif" font-size="44" fill="#111">Savio Shaju</text>
      <text x="300" y="200" font-family="serif" font-size="28" fill="#666">Full-Stack Developer • AI & ML</text>
      <rect x="12" y="280" width="756" height="2" fill="#111" opacity="0.06"/>
      <text x="22" y="330" font-family="serif" font-size="20" fill="#444">I build scalable applications and intelligent systems that solve real-world problems.</text>

      <!-- sketched buttons -->
      <g transform="translate(0,520)">
        <rect x="0" y="0" width="240" height="56" rx="12" fill="#fff" stroke="#111" stroke-width="3"/>
        <text x="28" y="38" font-family="serif" font-size="20" fill="#111">View Resume</text>

        <rect x="280" y="0" width="220" height="56" rx="12" fill="#fff" stroke="#111" stroke-width="2"/>
        <text x="310" y="38" font-family="serif" font-size="20" fill="#111">Contact</text>
      </g>
    </g>

    <!-- right column: sketched 3D card / illustration placeholder -->
    <g transform="translate(980,140)">
      <rect x="0" y="0" width="1400" height="720" rx="14" fill="#fff" stroke="#111" stroke-width="3"/>
      <!-- sketched floating card -->
      <g transform="translate(220,80) rotate(-6)">
        <rect x="0" y="0" width="500" height="320" rx="12" fill="#fff" stroke="#111" stroke-width="3"/>
        <rect x="22" y="28" width="456" height="264" fill="#F3F2F1" stroke="#111" stroke-width="1" opacity="0.4"/>
        <path d="M18 300 q120 -30 240 0 q120 30 240 0" fill="none" stroke="#111" stroke-width="2" stroke-opacity="0.25"/>
      </g>
    </g>
  </g>

  <!-- footer / sketched indicators -->
  <g transform="translate(140,1220)">
    <rect x="0" y="0" width="1200" height="3" fill="#111" opacity="0.06"/>
  </g>
</svg>